<svg width="80" height="48" viewBox="0 0 80 48" fill="none" xmlns="http://www.w3.org/2000/svg">
<g clip-path="url(#clip0_13190_155)">
<path d="M18.8766 12.5143H33.9653V13.7067H20.2597V22.6802H33.1481V23.8725H20.2597V33.7246H34.1225V34.9168H18.8766V12.5143ZM35.3172 12.5143H36.9203L44.0245 22.3664L51.2859 12.5142L61.1627 0L44.9361 23.4019L53.2978 34.9168H51.6317L44.0245 24.4373L36.3858 34.9168H34.7513L43.1758 23.4018L35.317 12.5143H35.3172ZM53.895 13.7067V12.5142H71.09V13.7066H63.1683V34.9167H61.7852V13.7067H53.895ZM0 12.5142H1.72891L25.5695 47.9818L15.7175 34.9167L1.44594 14.2086L1.38313 34.917H0V12.5142ZM70.9506 33.3645C70.668 33.3645 70.4561 33.147 70.4561 32.8656C70.4561 32.5844 70.668 32.3666 70.9506 32.3666C71.2366 32.3666 71.4452 32.5842 71.4452 32.8656C71.4452 33.1469 71.2366 33.3645 70.9506 33.3645ZM72.3097 32.0519H73.0498C73.0598 32.4503 73.3525 32.7183 73.7831 32.7183C74.2642 32.7183 74.5367 32.4303 74.5367 31.8911V28.4752H75.2903V31.8944C75.2903 32.8656 74.7252 33.4249 73.7898 33.4249C72.9117 33.4249 72.3097 32.8823 72.3097 32.0517V32.0519ZM76.2759 32.0084H77.0228C77.0867 32.4671 77.5375 32.7584 78.1869 32.7584C78.7923 32.7584 79.2364 32.4469 79.2364 32.0183C79.2364 31.65 78.9538 31.429 78.3112 31.2783L77.6855 31.1276C76.8073 30.9232 76.4072 30.5013 76.4072 29.7914C76.4072 28.9308 77.1136 28.3581 78.1733 28.3581C79.1589 28.3581 79.8789 28.9306 79.9227 29.7445H79.1892C79.1186 29.2991 78.7283 29.021 78.1631 29.021C77.5678 29.021 77.1709 29.3058 77.1709 29.741C77.1709 30.0859 77.4264 30.2837 78.0589 30.4309L78.5938 30.5616C79.5895 30.7927 80 31.1946 80 31.9212C80 32.8455 79.2802 33.4249 78.1297 33.4249C77.0531 33.4249 76.3297 32.8722 76.2759 32.0082V32.0084Z" fill="#DC2626"/>
</g>
<defs>
<clipPath id="clip0_13190_155">
<rect width="80" height="48" fill="white"/>
</clipPath>
</defs>
</svg>
