<svg width="15" height="15" viewBox="0 0 20 20" fill="none" xmlns="http://www.w3.org/2000/svg">
<path d="M2.02855 0H2.57578C3.3301 0.109276 3.85288 0.575134 4.36559 1.09635C6.17841 2.92815 8.00777 4.74486 9.83066 6.56947C9.87828 6.63174 9.91812 6.69958 9.94931 6.77149L10.0363 6.73698C10.0768 6.67792 10.121 6.62149 10.1686 6.56803C12.1049 4.62983 14.0421 2.69163 15.9803 0.753427C16.2681 0.45018 16.6284 0.225266 17.0273 0.0999285C17.1574 0.0611069 17.2905 0.0330702 17.4214 0H17.9686C17.9969 0.0139534 18.0265 0.0250316 18.057 0.0330696C18.7855 0.156724 19.3435 0.536312 19.6951 1.18334C19.8389 1.44431 19.9008 1.74769 20 2.03238V2.57948C19.8921 3.34225 19.4104 3.86562 18.889 4.3818C17.0611 6.1906 15.2497 8.0145 13.429 9.82977C13.3671 9.87804 13.2992 9.91793 13.2269 9.94839L13.2614 10.0354C13.3205 10.0759 13.3769 10.12 13.4304 10.1677C15.3691 12.1044 17.3075 14.0412 19.2457 15.978C19.5494 16.2655 19.7746 16.6258 19.9 17.0247C19.9382 17.1548 19.9669 17.2878 20 17.4194V17.9665C19.9871 18.0089 19.9705 18.0506 19.9619 18.0937C19.9086 18.4127 19.7871 18.7165 19.6057 18.9842C19.4243 19.252 19.1872 19.4774 18.9106 19.6452C17.9686 20.2332 16.8252 20.0801 16.0026 19.262C14.0591 17.3214 12.1176 15.3791 10.178 13.4351C10.1179 13.3621 10.0636 13.2844 10.0155 13.2029C9.92486 13.3151 9.88171 13.3805 9.82706 13.4344C7.90422 15.3587 5.98042 17.2826 4.05566 19.2059C3.97728 19.2835 3.8989 19.3619 3.81549 19.4345C3.56336 19.6515 3.26731 19.8114 2.94759 19.9034C2.62788 19.9953 2.29207 20.0171 1.96316 19.9671C1.63426 19.9172 1.32003 19.7968 1.042 19.6142C0.763977 19.4316 0.528725 19.191 0.35236 18.909C-0.230101 17.9593 -0.0826898 16.8241 0.737071 16.0002C2.67813 14.0563 4.62086 12.1152 6.56528 10.177C6.63787 10.1176 6.71506 10.064 6.79611 10.0167C6.68321 9.92394 6.61849 9.88009 6.56384 9.82617C4.63669 7.90091 2.71145 5.97565 0.788127 4.05038C0.716219 3.97849 0.640714 3.9066 0.572401 3.82536C-0.542905 2.56941 0.0553765 0.535593 1.67332 0.0869885C1.79054 0.0553561 1.9099 0.0294756 2.02855 0Z" fill="#E5E5E5"/>
</svg>
